/* XPM */
static char *result[] = {
/* columns rows colors chars-per-pixel */
"50 50 52 1 ",
"  c black",
". c #170300",
"X c #100A08",
"o c #260A0A",
"O c gray14",
"+ c gray23",
"@ c #400909",
"# c #6A0000",
"$ c #600B0B",
"% c #770000",
"& c #7F0000",
"* c #4A2B2B",
"= c #543B3B",
"- c gray32",
"; c gray34",
": c #5F5F5F",
"> c gray40",
", c #7B6565",
"< c #767676",
"1 c #890000",
"2 c #A60000",
"3 c #A00606",
"4 c #BF1B1B",
"5 c #B52B2C",
"6 c #C60000",
"7 c #CF2727",
"8 c #964646",
"9 c #895050",
"0 c #A26D6C",
"q c #A07B7A",
"w c #CE5C5C",
"e c #C26262",
"r c #898989",
"t c gray56",
"y c #939393",
"u c gray59",
"i c #A88988",
"p c #A2A2A2",
"a c #ACACAC",
"s c #B6B6B6",
"d c #D69797",
"f c #C1C1C1",
"g c #CACACA",
"h c #E5C1C1",
"j c #E8D4DB",
"k c #E6E6E6",
"l c #F6F6F6",
"z c #FFF2F2",
"x c #F9F9F9",
"c c gray99",
"v c white",
"b c None",
/* pixels */
"bbbbbbbbbbbbbbbbr                pbbbbbbbbbbbbbbbb",
"bbbbbbbbbbbbbbbbt                bbbbbbbbbbbbbbbbb",
"bbbbbbbbbbbbbbbbt                bbbbbbbbbbbbbbbbb",
"bbbbbbbbbbbbbbbby                bbbbbbbbbbbbbbbbb",
"bbbbbbbb+-------><<<<<<<<<<<<<<<<:--------bbbbbbbb",
"bbbbbbbb        :yyyyyyyyyyyyyyyu-        bbbbbbbb",
"bbbbbbbb        :ytttttttttttttty-       Xbbbbbbbb",
"bbbbbbbb        ;trrrrrrrrrrrttty-        bbbbbbbb",
"bbbbryyy;::;upppsggggggggggggutty<::::::::yyyrbbbb",
"bbbb    uyytkvcccxxxxxxxxxxxvptttyyyyyyyyt    bbbb",
"bbbb    yttrkxllllllllllllllcptttttttttttr    bbbb",
"bbbb    tttrkxllllllllllllllcprttttttttttr    bbbb",
"bbbb    saaakxllllllllllllllxsaaaptttttttr    bbbb",
"bbbb    vcccxllllllllllllllllxccvfrttttttr    bbbb",
"bbbb    cxllllllllllllllllllllllcfrttttttr    bbbb",
"bbbb    clllllllllllllllllllllllcfrttttttr    bbbb",
"bbbb    clllllllllllllllllllllllcfrttttttr    bbbb",
"   Ouyytclllllllllllllllllllllllcfrtttttttyyyu    ",
"   +ytttclllllllllllllllllllllllcfrttttttttttyO   ",
"   +ytttclllllllllllllxxxxxxxlllcfrttttttttttyO   ",
"   +trrrclllllllllllxzzzzzzzzcccvfrttttttttttyO   ",
"   ;kkkkxllllllllllxjeeeeeeeeippautttttttttttyO   ",
"   :vxxxlllllllllllxh67777777qtttttttttttttttyO   ",
"   :vllllllllllllllxh67777777qtttttttttttttttyO   ",
"   :vcccllllllllxccvh64447777qyyytttttttttyyyuO   ",
"   =ddddxllllllxhdddddddd24448999,tttttttt9999.   ",
"   @7444zxlllllcd646evccz3222&%%%9ytttttti#%%%o   ",
"   @7774xllllllcd677eclxz32221&&&9yttttttr%&&%o   ",
"   @7774ccxxxxxvd777evccz32221&&&9ytttttyt%&&%o   ",
"   *eeeehhhhhhhhe777whhhh32221&&&8000000008888.   ",
"   :vxxz&333333147774133322221&&&133333331iyyuO   ",
"   :vxxz3222222247774222222221&&&322222223yttyO   ",
"   :vxxz3222222247774222222221&&&322222223tttyO   ",
"   ;vxcz%11111113555533333333%###&1111111&ytyyX   ",
"bbbb    xzzzzzzzzzzzh%&&&&&&&qiiiiiiiiiiii    bbbb",
"bbbb    vxxxxxxxxxxch%&&&&&&%qtttttttttttr    bbbb",
"bbbb    cllllllllllch%&&&&&&%qtttttttttttr    bbbb",
"bbbb    vcccxllxlllch$###%#%#qtttttttttttr    bbbb",
"bbbb    aaapkxlllllxzhhhhqqqqrtttttttttttr    bbbb",
"bbbb    tttrkxllllllxxxxxrtttttttttttttttr    bbbb",
"bbbb    yttrkxlllllllllllrtttttttttttttttr    bbbb",
"bbbb    uyytkvcccxxxxxxcxrtttttttyyyyyyyyt    bbbb",
"bbbbuppu-;;-tuuyagfffffgfttttttty<;;;;;;;;pppubbbb",
"bbbbbbbb        ;trrrrrrrttttttty-        bbbbbbbb",
"bbbbbbbb        :ytttttttttttttty-       Xbbbbbbbb",
"bbbbbbbb        :yyyyyyyyyyyyyyyu-        bbbbbbbb",
"bbbbbbbb-:::::::><<<<<<<<<<<<<<<<>::::::::bbbbbbbb",
"bbbbbbbbbbbbbbbby                bbbbbbbbbbbbbbbbb",
"bbbbbbbbbbbbbbbbt                bbbbbbbbbbbbbbbbb",
"bbbbbbbbbbbbbbbbt                bbbbbbbbbbbbbbbbb"
};
