/* XPM */
static char *result[] = {
/* columns rows colors chars-per-pixel */
"50 50 57 1 ",
"  c black",
". c #170300",
"X c #100A08",
"o c #191919",
"O c #332A17",
"+ c gray14",
"@ c #2C2C2C",
"# c #392929",
"$ c gray23",
"% c #483A1A",
"& c #4A3F24",
"* c #675625",
"= c gray26",
"- c gray32",
"; c gray34",
": c #5F5F5F",
"> c #6D6755",
", c gray40",
"< c #767676",
"1 c #AB3F00",
"2 c #8A4115",
"3 c #9E4513",
"4 c #816A1F",
"5 c #B08F21",
"6 c #A78A31",
"7 c #E49D13",
"8 c #F6B715",
"9 c #DCA231",
"0 c #E6BA23",
"q c #FEC80C",
"w c #FCDF0F",
"e c #FDF100",
"r c #FFCD21",
"t c #ECC337",
"y c #FDD034",
"u c #8B8269",
"i c #C1A954",
"p c #D9CC79",
"a c #898989",
"s c gray56",
"d c #939393",
"f c gray59",
"g c #A09989",
"h c #A2A2A2",
"j c #ACACAC",
"k c #B6B6B6",
"l c #F3E893",
"z c #C1C1C1",
"x c #CACACA",
"c c gray84",
"v c #DDDDDD",
"b c #E6E6E6",
"n c #F6F6F6",
"m c #F9F9F9",
"M c gray99",
"N c white",
"B c None",
/* pixels */
"BBBBBBBBBBBBBBBBa                BBBBBBBBBBBBBBBBB",
"BBBBBBBBBBBBBBBBa                BBBBBBBBBBBBBBBBB",
"BBBBBBBBBBBBBBBBa                BBBBBBBBBBBBBBBBB",
"BBBBBBBBBBBBBBBBu****************gBBBBBBBBBBBBBBBB",
"BBBBBBBB        5rrrrrrrrrrrrrrrr4       oBBBBBBBB",
"BBBBBBBB        5qqqqqqqqqqqqqqqq4       @BBBBBBBB",
"BBBBBBBB        5qqqqqqqqqqqqqqqr4       @BBBBBBBB",
"BBBBBBBB ...X   6tttttttttttttttt4   X..X#BBBBBBBB",
"BBBB    3333tyyyiuuu>            6yyy93332    BBBB",
"BBBB   X11118qqqisss,            5qqq71113    BBBB",
"BBBB   X11118qqqissd,            5qqq71113    BBBB",
"BBBB   X11118qqqiaas,            5qqq71113    BBBB",
"BBBB   X8888wewwlbbbx<<<<        5qqq88889    BBBB",
"BBBB   XrqqqeeeelmmMvasda        5qqqqqqq0    BBBB",
"BBBB   Xrqqqeeeelnnmcassa        5qqqqqqq0    BBBB",
"BBBB   XrqqqeeeelMMMvsdds        5qqqqqqq0    BBBB",
"aas,   Xrqqqwwwwpzzzh=---        5qqqqqqq0    asaa",
"       Xrqqqqqqqiaas,            5qqqqqqq0        ",
"       Xrqqqqqqqissd,            5qqqqqqq0        ",
"       Xrqqqqqqqisdd<            5qqqqqqq0        ",
"       Xrqqqqqqqi<<<;            5qqqqqqq0        ",
"       Xrqqqqqqq4                5qqqqqqq0        ",
"       Xrqqqqqqq4                5qqqqqqq0        ",
"       Xrqqqqqqq4                5qqqqqqq0        ",
"       Xrqqqqqqq4                5qqqqqqq0        ",
"       Xrqqqqqqq4   <NMNnsddf+   5qqqqqqq0        ",
"       Xrqqqqqqq4   <Nmmnassd+   5qqqqqqq0        ",
"       Xrqqqqqqq4   <Nnmnassd+   5qqqqqqq0        ",
"        yryyyyyy4   <NMMnassd+   6ryyyyyrt        ",
"   :vccc%%%%%%%%O   -jhhhsssd+   O%%%%%%%&<<<ao   ",
"   ,NmMn            =dssssssd+           oddddo   ",
"   ,Nnmn            =dssssssd+           odssdo   ",
"   ,NNNn            $fddddddfo           Xfddf    ",
"hhhfsssahhhhhhhhhhhja--------:::::::::::::----fhhh",
"BBBB    NMMMMMMMMMMNz        addddddddddda    BBBB",
"BBBB   XMnnnnnnnnnnMz        asssssssssssa    BBBB",
"BBBB   XNmmmnnnnnnnMk        asssssssssssa    BBBB",
"BBBB   Xbvvvnnnnnnnmx:,,,$$$$asssssssssssa    BBBB",
"BBBB    saaabmnnnnnnmMNNmsdddssssssssssssa    BBBB",
"BBBB    dssabmnnnnnnnnnmnasssssssssssssssa    BBBB",
"BBBB    dssabmmmmmnnnnnmnassssssssssssssda    BBBB",
"BBBB    sssabnnnnnnnnnnmnasssssssssssssssa    BBBB",
"BBBBBBBB        ;saaaaaaasssssssd=       +BBBBBBBB",
"BBBBBBBB        ,dssssssssssssssd=       @BBBBBBBB",
"BBBBBBBB        ,dssssssssssssssd=       @BBBBBBBB",
"BBBBBBBB        :fddddddddddddddf=       XBBBBBBBB",
"BBBBBBBBBBBBBBBB<+@@@@@@@@@@@@@@ohBBBBBBBBBBBBBBBB",
"BBBBBBBBBBBBBBBBa                BBBBBBBBBBBBBBBBB",
"BBBBBBBBBBBBBBBBa                BBBBBBBBBBBBBBBBB",
"BBBBBBBBBBBBBBBB<                BBBBBBBBBBBBBBBBB"
};
