/* XPM */
static char *result[] = {
/* columns rows colors chars-per-pixel */
"32 32 18 1 ",
"  c black",
". c #28272C",
"X c #701028",
"o c #1F2945",
"O c #384040",
"+ c #354775",
"@ c #424149",
"# c #784040",
"$ c #C03838",
"% c #F06848",
"& c #66847B",
"* c #D8A078",
"= c #406888",
"- c #4F69AE",
"; c #F8D0B8",
": c #B8B0D0",
"> c #E8E8F8",
", c None",
/* pixels */
",,,,,,,,,,,,,,,,,,,,,,,,,,,,,,,,",
",,,,,,,,,,,,,,,,,,,,,,,,,,,,,,,,",
",,,,,,,,,,,,,,,,,,,,,,,,,,,,,,,,",
",,,,,,,,,,,,XXXXXXXX,,,,,,,,,,,,",
",,,,,,,,,,XX%%%%%%%%XX,,,,,,,,,,",
",,,,,,,,, $%%%%%%%%%%$ ,,,,,,,,,",
",,,,,,,,, $%%%%%%%%%%$ ,,,,,,,,,",
",,,,,,,,XX$%%%%%%%%%%$XX,,,,,,,,",
",,,,,,,, X$$%%%%%%%%$$X ,,,,,,,,",
",,,,,,,, $OOOOO$$OOOOO$ ,,,,,,,,",
",,,,,,,, XO&&&&OO&&&&OX ,,,,,,,,",
",,,,,,,,. XO&&&OO&&&OX .,,,,,,,,",
",,,,,,, . $XOOO$$OOOX$ . ,,,,,,,",
",,,,,,, @. $%%%%%%%%$ .@ ,,,,,,,",
",,,,,,,,.@@ @%%%%%%@ @@.,,,,,,,,",
",,,,,,,, @ #: @@@@ :# @ ,,,,,,,,",
",,,,,,,,   ;> **** >;   ,,,,,,,,",
",,,,,,,,,@ #;;;;;;;;# @,,,,,,,,,",
",,,,,,,,,,@  *;**;*  @,,,,,,,,,,",
",,,,,,,,,, :o  ##  o: ,,,,,,,,,,",
",,,,,,,,,o:+-+O&O&+-+:o,,,,,,,,,",
",,,,,,,,oo+- +:O&.+ -+oo,,,,,,,,",
",,,,,,,#;oo ..+:.@ . oo;#,,,,,,,",
",,,,,,, ;; , &-:: &@. ;; ,,,,,,,",
",,,,,,,,  ,,.=:&&:  .O  ,,,,,,,,",
",,,,,,,,,,, ===  ==.OO ,,,,,,,,,",
",,,,,,,,,,, == ,, ==  ,,,,,,,,,,",
",,,,,,,,,,, OO ,, OO ,,,,,,,,,,,",
",,,,,,,,,,,,  ,,,,  ,,,,,,,,,,,,",
",,,,,,,,,,,,,,,,,,,,,,,,,,,,,,,,",
",,,,,,,,,,,,,,,,,,,,,,,,,,,,,,,,",
",,,,,,,,,,,,,,,,,,,,,,,,,,,,,,,,"
};
