/* XPM */
static char *bf23803afdb5462ed7b464c3f672f77fBfUNxTXskSVWYZxB[] = {
/* columns rows colors chars-per-pixel */
"50 50 57 1 ",
"  c black",
". c #767676",
"X c #898989",
"o c gray56",
"O c #400909",
"+ c #7B6565",
"@ c #191919",
"# c #A00606",
"$ c #6A0000",
"% c #2C2C2C",
"& c #4C0608",
"* c #A60000",
"= c #392929",
"- c #170300",
"; c #600B0B",
": c #770000",
"> c #890000",
", c #B52B2C",
"< c #DE5F4F",
"1 c #F89777",
"2 c #F6846D",
"3 c #CF2727",
"4 c #BF1B1B",
"5 c #7F0000",
"6 c #100A08",
"7 c #F3AB9B",
"8 c #FBE9DF",
"9 c #F3BFAD",
"0 c gray99",
"q c #F9F9F9",
"w c #C52F2F",
"e c #F6F6F6",
"r c #D94D43",
"t c #E48879",
"y c #260A0A",
"u c #310405",
"i c #8F2A2A",
"p c #B03636",
"a c gray23",
"s c white",
"d c gray59",
"f c #939393",
"g c gray26",
"h c gray14",
"j c #DDDDDD",
"k c gray84",
"l c #4A2B2B",
"z c #3C1212",
"x c #ACACAC",
"c c #A2A2A2",
"v c gray32",
"b c gray34",
"n c #5F5F5F",
"m c #E6E6E6",
"M c gray40",
"N c #CACACA",
"B c None",
/* pixels */
"BBBBBBBBBBBBBBBBB                .BBBBBBBBBBBBBBBB",
"BBBBBBBBBBBBBBBBB                XBBBBBBBBBBBBBBBB",
"BBBBBBBBBBBBBBBBB                XBBBBBBBBBBBBBBBB",
"BBBBBBBBBBBBBBBBoOOOOOOOOOOOOOOOO+BBBBBBBBBBBBBBBB",
"BBBBBBBB@       O################$        BBBBBBBB",
"BBBBBBBB%       &****************$        BBBBBBBB",
"BBBBBBBB%       &****************$        BBBBBBBB",
"BBBBBBBB=-------;*##*************$------- BBBBBBBB",
"BBBB    :>>>,,,,<1112333333334***#>>>>$$$$    BBBB",
"BBBB    >***4333<1112333333334*******#555:6   BBBB",
"BBBB    >***4333<1112333333334*******#555:6   BBBB",
"BBBB    >***4444<1111444433334*******#555:6   BBBB",
"BBBB    ,334<222788882222333333334****###>-   BBBB",
"BBBB    ,333211190qq81111w33333334*******#-   BBBB",
"BBBB    ,33321119qeq81111w33333334*******#-   BBBB",
"BBBB    ,333211190qq81111w33333334*******#6   BBBB",
"XXXX;;;;w333r<<<t9999<<<<333333334*******#&&&&+oXX",
"   6#***33333333r11124333333333334********5555y   ",
"   y#***33333333<11123333333333334********5555u   ",
"   y#***33333333<11123333333333334********>555u   ",
"   y#44433333333r2222iiiiiiii,4444********5555u   ",
"   yw333333333333333,        :************5555u   ",
"   y3333333333333333,        $************5555u   ",
"   y3333333333333333,        :************>555u   ",
"   -p,,,33333333wp,,i        ;>>5>****####$$$$y   ",
"        ,3333333i   as00sdffdg   ;***#5555-       ",
"        ,3333333i   a0qe0doofg   &***#555:6       ",
"        ,3333333i   a0ee0doofg   &***#555:6       ",
"        pwwwwwwwi   as00sdoofg   &###>:::$        ",
"   hjkkjlzzzzzzzy   hxcccooofg   -uuuuyyy-...Xa   ",
"   %sqqs%           @foooooofg            offfg   ",
"   %0ee0%           hfoooooofg            Xoofg   ",
"   @ssss@           6dffffffdg            offda   ",
"ccccXooXccccccccccccdvvvvvvvvbnnnnnnnnnnnnvvvvXccc",
"BBBB    ms000000000sm        .dffffffffffd    BBBB",
"BBBB    mqeeeeeeeeeqm        Mfoooooooooof    BBBB",
"BBBB    m0qqqeeeeeeqm        Mfoooooooooof    BBBB",
"BBBB    NjjjeqeeeeeqmnMMMaaaa.foooooooooof    BBBB",
"BBBB    XXXXkqeeeeeeq0sssdfffoooooooooooof    BBBB",
"BBBB    XooXkqeeeeeeeeee0dooooooooooooooof    BBBB",
"BBBB    XooXkqqqqqeeeeeq0dooooooooooooooof    BBBB",
"BBBB    XooXkeeeeeeeeeee0doooooooooooooooo    BBBB",
"BBBBBBBBh       aoXXXXXXXooooooofn        BBBBBBBB",
"BBBBBBBB%       gfoooooooooooooofM        BBBBBBBB",
"BBBBBBBB%       gfoooooooooooooofM        BBBBBBBB",
"BBBBBBBB6       gdffffffffffffffdn        BBBBBBBB",
"BBBBBBBBBBBBBBBBc@%%%%%%%%%%%%%%h.BBBBBBBBBBBBBBBB",
"BBBBBBBBBBBBBBBBB                XBBBBBBBBBBBBBBBB",
"BBBBBBBBBBBBBBBBB                XBBBBBBBBBBBBBBBB",
"BBBBBBBBBBBBBBBBB                .BBBBBBBBBBBBBBBB"
};
