/* XPM */
static char *_0a156c0c5e24a72aed45c45aa96eb57baJcCNnNwCnJCNs2[] = {
/* columns rows colors chars-per-pixel */
"87 61 141 2 ",
"   c None",
".  c #28081E",
"X  c #31141A",
"o  c #2F1823",
"O  c #351F27",
"+  c #39222B",
"@  c #3E2C2E",
"#  c #412424",
"$  c #402F2F",
"%  c #412E31",
"&  c #453333",
"*  c #493736",
"=  c #4B3837",
"-  c #4B3738",
";  c #4D3A39",
":  c #523D3D",
">  c #55413F",
",  c #583E41",
"<  c #564140",
"1  c #5B4544",
"2  c #5E4B46",
"3  c #604544",
"4  c #624A47",
"5  c #604748",
"6  c #644B4A",
"7  c #694E4E",
"8  c #67524C",
"9  c #69524E",
"0  c #6D4E52",
"q  c #6D5352",
"w  c #6E5954",
"e  c #735656",
"r  c #735A56",
"t  c #755758",
"y  c #775959",
"u  c #7A5C5B",
"i  c #726055",
"p  c #776559",
"a  c #7D615E",
"s  c #7D6A5D",
"d  c #80615F",
"f  c #836462",
"g  c #886765",
"h  c #866964",
"j  c #896A66",
"k  c #8D6D69",
"l  c #906F6B",
"z  c #897266",
"x  c #8E716B",
"c  c #8E7C68",
"v  c #93736E",
"b  c #937B6E",
"n  c #837873",
"m  c #967570",
"M  c #987771",
"N  c #967B70",
"B  c #9A7B73",
"V  c #94846F",
"C  c #978470",
"Z  c #9C8275",
"A  c #9E8C76",
"S  c #9F8278",
"D  c #A08077",
"F  c #A08577",
"G  c #A28874",
"H  c #A08F77",
"J  c #A18579",
"K  c #A3887A",
"L  c #A58D7B",
"P  c #A58C7C",
"I  c #A58B7B",
"U  c #A88E7E",
"Y  c #A6937B",
"T  c #A7947C",
"R  c #A4917B",
"E  c #A9917D",
"W  c #AD967F",
"Q  c #AA937E",
"!  c #AA997F",
"~  c #9C948E",
"^  c #AD9580",
"/  c #AD9781",
"(  c #AC9580",
")  c #AC9981",
"_  c #AD9B81",
"`  c #AF9882",
"'  c #AE9A82",
"]  c #AF9A82",
"[  c #AE9A82",
"{  c #B09B83",
"}  c #B09C83",
"|  c #B19C83",
" . c #B19C84",
".. c #B19D84",
"X. c #B29D85",
"o. c #B29E84",
"O. c #B39F85",
"+. c #B19D84",
"@. c #A69690",
"#. c #A59892",
"$. c #A59C97",
"%. c #B3A085",
"&. c #B3A185",
"*. c #B3A086",
"=. c #B4A185",
"-. c #B5A284",
";. c #B4A086",
":. c #B4A286",
">. c #B5A286",
",. c #B5A386",
"<. c #B4A287",
"1. c #B5A287",
"2. c #B5A387",
"3. c #B6A387",
"4. c #B6A485",
"5. c #B6A486",
"6. c #B6A487",
"7. c #B6A587",
"8. c #B7A587",
"9. c #B6A487",
"0. c #B6A488",
"q. c #B7A488",
"w. c #B7A588",
"e. c #B7A688",
"r. c #B7A588",
"t. c #B8A688",
"y. c #B8A689",
"u. c #B9A78A",
"i. c #B8A68D",
"p. c #B8A689",
"a. c #B9A889",
"s. c #BAA88A",
"d. c #BAA98A",
"f. c #BAA88A",
"g. c #BFB19A",
"h. c #B8A8A5",
"j. c #C5B9AA",
"k. c #C5B9AD",
"l. c #D6CDC1",
"z. c #D1CCC9",
"x. c #E4E1DF",
/* pixels */
"                                                                                                                                                                              ",
"                                                                                                                                                                              ",
"                                                                            @                                                                                                 ",
"                                                                          r 9 9 9 s                                                                                           ",
"                                                                    6 9 8 j S B B r 9 6 w n                                                                                   ",
"                                                              < : 7 N ..;.;.;.;.;.;.6.G h.x.w : < :                                                                           ",
"                                                          * % t C ' &.6.6.6.6.6.6.6.e.;.i.g.' ' Z e % & & ;                                                                   ",
"                                                      & * u C T ..y.6.6.6.6.6.6.6.6.6.6.6.;.y.y...Y A A A z w                                                                 ",
"                                                    1 4 u L e.s.e.6.6.6.6.6.6.6.6.6.6.6.6.6.6.6.e.s.s.y.' D h 9                                                               ",
"                                                  i 1 j B | | ' ..e.6.6.6.6.6.6.6.6.6.6.6.6.6...{ | ..^ j g k t @                                                             ",
"                                                  8 r M m v m v K ;.&.&.;.6.6.6.6.6.6.6.;.;.&.B v v v k ; & * & ;                                                             ",
"                                                ; 4 g M v u k m m M M M ' y.e.e.6.6.6.e.' M M 6 ; : : : * * * * = 2                                                           ",
"                                                & 6 g m v k v m m m m m B Z Z K e.6.6.^ x 1 2 - * * * * * * * * * &                                                           ",
"                                                & 4 g M m m m m m m m m v v v m L ;.j.#.3 & & * * * * * * * * * * * 1                                                         ",
"                                                $ e j k k v m m m m m m m m m m m Q k.~ X * * * * * * * * * * * * * *                                                         ",
"                                                - h k e y v m m m m m m m m m m m v W c & * * * * * * * * * * * * * *                                                         ",
"                                              * q k k t u v m m m m m m m m m m m m M j 7 * * * * * * * * * * * * * * *                                                       ",
"                                              * q k m v v m m m m m m m m m m m m m m j q * * * * * * * * * * * * * * *                                                       ",
"                                              * q k M m m m m m m m m m m m m m m m m j 7 & * * * * * * * * * * * * * * ;                                                     ",
"                                        u u w & q f k M m m m m m m m m m m v g j v m j e 1 * * * * * * * * * * * * * * & w                                                   ",
"                                      9 4 4 4 6 u a h k k v m v v v m m m m k u a k v j t e ; * * * * * * * * * * * * * * w                                                   ",
"                                : < 2 j Z B B B B B v a f M B B B B B m m m m m v u k g t e - * * * * * * * * * * * * * * w                                                   ",
"                        < * * < y v ' 6.;.;.;.;.;.;.;.&.&.;.;.;.;.;.&.M m m m m m v f t y e - * * * * * * * * * * * * * & r                                                   ",
"                    @ % f g C ! ' | ;.e.6.6.6.6.6.6.6.6.6.6.6.6.6.6.6...B v v m m m f t y e = * * * * * * * * * & & & @ t a O + @                                             ",
"                @ 4 f V Q ( ..y.e.6.6.6.6.6.6.6.6.6.6.6.6.6.6.6.6.6.6.e.' Q I v v m f t t t 7 ; * * * & & & @ 4 f a a u Z Y V V a , . o                                       ",
"              : : p ( s.y.e.6.6.6.6.6.6.6.6.6.6.6.6.6.6.6.6.6.6.6.6.6.6.e.y...K K v u t t y y : * & : w w w 9 z U P P I { s.s.y.U z s p u                                     ",
"            < t u b ;...;.6.6.6.6.6.6.6.6.6.6.6.6.6.6.6.6.6.6.6.6.6.6.6.6.6.6.y.e.f t t t t t : & : r D S S Z Q y.e.e.e.6.6.6.6.e.y.s...N 9 8 2 w                             ",
"          2 t l m m m M ..6.;.6.6.6.6.6.6.6.6.6.6.6.6.6.6.6.6.6.6.6.6.6.6.6.6.6.;.h t t t t t : & t J e.6.6.6.6.6.6.6.6.6.6.6.6.6.6.6.6.e.e.;.J u <                           ",
"        5 e v m m m m m B B Q y.e.6.6.6.6.6.6.6.6.6.6.6.6.6.6.6.6.6.6.6.6.6.6.6.;.h t 6 < y t e g v F 6.6.6.6.6.6.6.6.6.6.6.6.6.6.6.6.6.e.e.J B u &                           ",
"      a < y f a k m m m v v B J I e.6.6.6.6.6.6.6.6.6.6.6.6.6.6.6.6.6.6.6.6.6.6.y.g t e e y t t k m F y.e.e.6.6.6.6.6.6.6.6.6.6.6.e.y...J J w 7 < * 1                         ",
"        < t t e j m m m m m m v m L ;.e.6.6.6.6.6.6.6.6.6.6.6.6.6.6.6.6.6.6.y.;.Z a t q 4 6 t t k m B Q E L ..y.e.6.6.6.6.6.6.e.e.^ Q C t t ; & * * ; 2                       ",
"      8 6 f f d k m m m m m m m m m Q ;.6.6.6.6.6.6.6.6.6.6.6.6.6.6.6.6.e.&.' H 0 t y 4 @ ; a f l m m v v v L | ..6.6.6.6.6.;.{ | b h e @ & * * * * & <                       ",
"    & < f m m m m m m m m m m m m m v Q ;.6.6.6.6.6.6.6.6.6.6.6.6.6.;.;.;.L j 7 = e y 6 - 1 m m m m m m m m m v B &.;.;.6.6.' x k 2 $ * * * * * * * * :                       ",
"    & < a m m m m m m m m m m m m m m m Q e.6.6.6.6.6.6.6.6.6.6.e...M M M M f & * e y t t u v m m m m m m m m m m M M | y.^ z ; ; * * * * * * * * * * * *                     ",
"      < a m m m j h m m m m m m m m m m M I e.6.y.y.y.y.;.J Z Z Z b 2 1 1 2 < * - e y t f z f u k m m m m m m m m m m B Z j > * * * * * * * * * * * * * *                     ",
"  7 4 y j f h v v k m m m m m m m m m m v M U 6.Z b b B K h f h h u & & & & * * - e y t f v t e k m m m m m m m m m m v m g 1 * * * * * * * * * * * * * * 1                   ",
"  & 4 j v f t k M m m m m m m m m m m m m v z 6.g e e y g g u t t e 1 ; * * * * * 4 e a k v g g v m m m m m m m m m m m m k e * * * * * * * * * * * * * * * &                 ",
"  & 4 g M v f v m m m m m m m m m m m m M k a Q g t t t y l d t t y t ; * * * * * & 7 j M m m m m m m m m m m m m m m m m k q * * * * * * * * * * * * * * * *                 ",
"  & 4 g m m m v v m m m m m m m m m m m m k t t t t t t t t t t t t t ; * * * * * * q j m m m m m m m m m m m m m m m m m k q * * * * * * * * * * * * * * * * &               ",
"  & 6 y f m m f j m m m m m m m m m m m j y t t t t t t t t t t t t t ; * * * * * * h m m m m m m m m m m m v v v v v v m k q * * * * * * * * * * * * * * & % % % @ #         ",
"  & 6 t u m m z v m m m m m m m m m m m j t t t t t t t t y y t t t t q : * * * * * r k m m m m m m m m v v I ' ' ' ' ' J l k g ; * * * * * * * * * * & a Z R R H R z.$.      ",
"  & 6 a k m m m m m m m m m k j m m m M j t t t t t t t y y y y t t t y < * * * * * 7 j m m m m m m m M L Q ..y.e.e.e.e.' Q L m a : @ * * * * * * * ; p L ;.y.y.y.y.l.@.4     ",
"  & 4 g M m m m m m m m m m j g m m m v h t t t t t y y y y y y y y t y < * * * * * q j m m m m m v k M e.s.e.6.6.6.6.6.6.y.&.J J z r 2 * * * * * ; 6 M ^ ;.e.6.6.6.-.^ h @   ",
"  & 4 g m m m m m m m v m m m m m m m f t t t t t t y y y y y y y y y y 1 = * * * * 7 g m m m m M g u M ..Q &.6.6.6.6.6.6.6.6.e.e.s.( f & * * * * 1 f v v E ;.e.6.6.&.e.b +   ",
"  & 4 g m m m m m m v u v m m m m m M f t t y y y y y y t t y y y y t t y 4 * * * * & u M m m m m j d m M v Q e.6.6.6.6.6.6.6.6.;.e.Q a & * * * & 8 m m m f Z y.;.6.Z M a @   ",
"  & 4 g m m m m m k f v m m m m m m M f t t t t y y y y t y y y y y t t y 4 * = * * * 6 g m m m h g k u v m M Q y.6.6.6.6.6.e.6.J D f : * * * * * ; 8 m f t a j j h 6 1 : * * ",
"  & 4 g m m m M l a a M m m m m m m j u t t t t y y t t y t y y y y t t y 4 & & & & @ 1 f M m M f j m k v m v B Q y.y.y.y...I K t q 1 & * * * * * & - w t y t t t t ; & * * * ",
"  & 6 g m m m g e 6 q a v M m m m v u t t t t t t t t t t t y y e 7 t t t 1 > r r r r e y j m h q e f k v m m v M W Q Q ' Z u u * & * * * * * & : < * & 4 e y t t t 7 : * * * ",
"  % < a v m v 5 @ & & * f k v m m m u t t t y y y y y y y y t e 6 < t a a q p J D D J N j j z < & & ; e v m m m m v v l k r @ & * * * * * * : 1 r t : * & 4 t y y t e < & ; 6 ",
"  2 2 8 a v u < * * * * * % t m v v a t t t y y t t y t t t y 1 < y u v v v J e.6.6.6.e.y...u : * * * > v m m m m m m f 1 & * * * * * * * ; t v M z t ; * & 4 t e e : : 2 2   ",
"        t u v 6 & * * * * * - 4 u u y t t t t t < 7 y t t t y 1 < d v u y t b y.6.6.6.6.e.;.N 1 * * * ; y v m m m m m f 1 * * * * * * * * ; k m m v v e : * = ; ; ; - s       ",
"      w v v m u < * * * * * * = 1 t t t t y t y q e t t t t 4 ; * 7 v y A ' _ y.6.6.e.y...Z 9 ; * * * * < z M m v a v f 1 * * * * * * * * ; v M m m m v t < &                 ",
"    w j v g v k u < & * * * * * ; t y t t t t y y y y y t y : & : q g j N Z A Q e.y.^ Q Z q & * * * * * * a v m v j g q : * * * * * * * * ; f u h M M M f < &                 ",
"  : a v j f v M k t : * * * * * ; 7 t t t t t 7 7 7 q y t t 6 ; 1 y y v u 0 u M ^ ' v f t % * * * * * * * 4 f v M v y : * * * * * * * * * = 6 ; w h f f w <                   ",
"& q y t u v m v m k q * * * * * * * e y t t q < ; ; 2 t t t t 1 1 y u v h u h m m m 6 @ * * * * * * * * * & 5 f v v u < * * * * * * * * * * ;     * * * *                     ",
": q t t t u v f j k q * * * * * * = e t t q < v a t 7 < t t < 4 t t u v m m m m m M 9 & * * * * * * * * * * ; : q v y : * * * : : : : : : :                                   ",
"  < 9 y a v M v m v e * * * * * ; ; < < > 9 v M m g 6 * < < ; : < 1 y v m m m m m M 9 & * * * * * * * * * * r     2 < : ; ; >                                                 ",
"    9 < 1 w q w w 7 < * * * * ;           p w q w 4 : -           a 6 v M M v g M B 9 & * * * * * * * * * ; a                                                                 ",
"      &                                                             < a a a r 7 a a 1 * * * * * * * * * ; <                                                                   ",
"                                                                      & @ @ % & @ @ & * * * * * * * * * ;                                                                     ",
"                                                                                                                                                                              "
};
