/* XPM */
static char *b8d8faeac89f499fc3b5577ba0808985sBiy3DiGSrvqBwxA[] = {
/* columns rows colors chars-per-pixel */
"50 50 70 1 ",
"  c #A2A2A2",
". c black",
"X c #898989",
"o c gray56",
"O c #939393",
"+ c gray32",
"@ c #563F5E",
"# c #6A2B7F",
"$ c #542E5F",
"% c gray23",
"& c #492057",
"* c #8726A7",
"= c #591E5E",
"- c #100A08",
"; c #A26D6C",
": c #91485A",
"> c #984682",
", c #9E3FB7",
"< c #9434B0",
"1 c #F696AC",
"2 c #F78FA6",
"3 c #F56293",
"4 c #F75F86",
"5 c #CA50A1",
"6 c #B756C7",
"7 c #BE4799",
"8 c #4A2B2B",
"9 c #5B3D43",
"0 c #DA83B2",
"q c #C08ACB",
"w c #3C1212",
"e c #F2B0C1",
"r c #E8D4DB",
"t c gray99",
"y c #F9F9F9",
"u c #F7DDF8",
"i c #F6F6F6",
"p c #E0A8C7",
"a c #FFF2F2",
"s c #F1639C",
"d c #260A0A",
"f c #9B46B2",
"g c #A855B5",
"h c #A63495",
"j c #400909",
"k c #3D1C23",
"l c #321A39",
"z c #863C98",
"x c #6B0B96",
"c c #280B35",
"v c #5F5F5F",
"b c #01011D",
"n c #783D88",
"m c gray26",
"M c white",
"N c gray59",
"B c #191919",
"V c #E6E6E6",
"C c #DDDDDD",
"Z c #51166A",
"A c gray14",
"S c #2C2C2C",
"D c #767676",
"F c gray84",
"G c #ACACAC",
"H c #CACACA",
"J c gray34",
"K c #C1C1C1",
"L c gray40",
"P c None",
/* pixels */
"PPPPPPPPPPPPPPPP ................XPPPPPPPPPPPPPPPP",
"PPPPPPPPPPPPPPPPP................oPPPPPPPPPPPPPPPP",
"PPPPPPPPPPPPPPPPP................oPPPPPPPPPPPPPPPP",
"PPPPPPPPPPPPPPPPP................OPPPPPPPPPPPPPPPP",
"PPPPPPPP++++++++@################$+++++++%PPPPPPPP",
"PPPPPPPP........&****************=........PPPPPPPP",
"PPPPPPPP-.......&****************=........PPPPPPPP",
"PPPPPPPP........&****************=........PPPPPPPP",
"PPPPXOOO;;;;::::>,,,,<<<<<<<<****>::::::::oOoXPPPP",
"PPPP....1222344456666,,,,,,,,<***744444444....PPPP",
"PPPP....1222444456666,,,,,,,,<***744444444....PPPP",
"PPPP....1222444456666,,,,,,,,<***744444444....PPPP",
"PPPP8999122222220qqqq,,,,,,,,<*<*744444444888wPPPP",
"PPPPPPPP2222eeeertytu6666,,,,,,,,5444444444444PPPP",
"PPPP22222222eeeeryiyu6666,,,,,,,,5444444444444PPPP",
"PPPP22222222eeeeryyyu6666,,,,,,,,5444444444444PPPP",
"PPPP22222222epppuaaau6666,,,,,,,,7ssss44444444PPPP",
"...d444444447ffffgggg,,,,,,,,,,,,<<<*h44444444j...",
"...k444444447,,,,6666,,,,,,,,,,,,<***h444444448...",
"...k444444447,,,,6666,,,,,,,,,,,,<***h444444448...",
"...k33333333h,,,66666ffffffff,,,,<***h333333339...",
"...lhhhhhhhh,,,,,,,,zllllllll#**<****<hhhhhhhhl...",
"...l********<,,,,,,,z........#************xxxxc...",
"...l********<,,,,,,,z........#************xxxxc...",
"...l********<,,,,,,,z........#************xxxxc...",
"...-&&&&<<<<,,,,z$$$@    vvvv@&&&#********&&&&b...",
"........f,,,,,,,n...mMttMOOON%...&****xxxx........",
"........f,,,,,,,n...mtiitoooO%...&****xxxx........",
"........f,,,,,,,n...mMyytoooO%...&****xxxx........",
"...Bvvvvnnnnnnnn$...mVCCVoooO%...l####ZZZZ%%%%B...",
"...mMMMM............AoXXXoooO%............OOON%...",
"...mtiyt-...........SOooooooO%............oooO%...",
"...%MyyM-...........SOooooooO%............oooO%...",
"...SMyyM............BOOOOOOOO%............OOOOS...",
"PPPP....iMtttttttttMC........DOOOOOOOOOOON....PPPP",
"PPPP....iyiyyiiiiiyyC........DOooooooooooO....PPPP",
"PPPP....iyiiiiiiiiyyF........DOooooooooooO....PPPP",
"PPPP....itttyiiiiiiyF........DOooooooooooO....PPPP",
"PPPP.... GG CyiiiiiyiHFFFDDDDXoooooooooooO....PPPP",
"PPPP....XooXCyiiiiiiyyyyMOoOOooooooooooooO....PPPP",
"PPPP....XooXCyiiiiiiiiiitooooooooooooooooO....PPPP",
"PPPP....oOOoCMtttyyyyyytMooooooooOOOOOOOON....PPPP",
"PPPPN   JJJ+XNNNGHKKKKKKHoooooooOD+JJJJJJ+N  NPPPP",
"PPPPPPPP........moXXXXXXXoooooooOv........PPPPPPPP",
"PPPPPPPP-.......+OooooooooooooooOv........PPPPPPPP",
"PPPPPPPP........+NOOOOOOOOOOOOOOOv........PPPPPPPP",
"PPPPPPPPvvvvvvvvLDDDDDDDDDDDDDDDDLvvvvvvv+PPPPPPPP",
"PPPPPPPPPPPPPPPPP................OPPPPPPPPPPPPPPPP",
"PPPPPPPPPPPPPPPPP................oPPPPPPPPPPPPPPPP",
"PPPPPPPPPPPPPPPP ................oPPPPPPPPPPPPPPPP"
};
