/* XPM */
static char *_c439729c3644636aed21c71aa254f92B96j3zrAN0U2Upnt[] = {
/* columns rows colors chars-per-pixel */
"50 50 68 1 ",
"  c gray59",
". c black",
"X c #A2A2A2",
"o c #797A8E",
"O c #060B4A",
"+ c #000060",
"@ c #041BBA",
"# c #0111C3",
"$ c #000055",
"% c #170300",
"& c #C94B71",
"* c #CB486C",
"= c #8973B7",
"- c #32A3FF",
"; c #3FA0FF",
": c #1F34BF",
"> c #863C98",
", c #AA315A",
"< c #D73F6E",
"1 c #BA2759",
"2 c #8F2D4D",
"3 c #F75F86",
"4 c #E0A8C7",
"5 c #CDF3FC",
"6 c #ACE1F7",
"7 c #3A89F5",
"8 c #8B65B6",
"9 c #F2B0C1",
"0 c gray99",
"q c #F9F9F9",
"w c #F6F6F6",
"e c white",
"r c #898989",
"t c #581C8B",
"y c #CD4479",
"u c #BC8FB8",
"i c #7CC3F0",
"p c #591E5E",
"a c #00002B",
"s c #0000A4",
"d c #01011D",
"f c #9C5998",
"g c #6B78C6",
"h c #3B7DB5",
"j c #19263F",
"k c #3782DD",
"l c #427ED6",
"z c #376CAF",
"x c #457EC4",
"c c #284F84",
"v c gray34",
"b c gray56",
"n c #939393",
"m c #2C2C2C",
"M c #3267C1",
"N c gray26",
"B c #DDDDDD",
"V c gray84",
"C c #001532",
"Z c gray23",
"A c #ACACAC",
"S c #767676",
"D c gray32",
"F c gray14",
"G c #5F5F5F",
"H c #CACACA",
"J c gray40",
"K c None",
/* pixels */
"KKKKKKKKKKKKKKKK ................ KKKKKKKKKKKKKKKK",
"KKKKKKKKKKKKKKKK ................XKKKKKKKKKKKKKKKK",
"KKKKKKKKKKKKKKKKX................XKKKKKKKKKKKKKKKK",
"KKKKKKKKKKKKKKKKoOOOOOOOOOOOOOOOOoKKKKKKKKKKKKKKKK",
"KKKKKKKK........+@@@@@@@@@@@@@@@@+........KKKKKKKK",
"KKKKKKKK........+################+........KKKKKKKK",
"KKKKKKKK........+################$........KKKKKKKK",
"KKKKKKKK.%%%%%%%$@@@@@@@@@@@@####+%%%%%%%.KKKKKKKK",
"KKKK....&&&&&&&*=-;;;;;;;;;;;:###>*&&&,,,,....KKKK",
"KKKK....*<<<<<<<=------------:###><<<<111,....KKKK",
"KKKK....*<<<<<<<=------------:###><<<<111,....KKKK",
"KKKK....*<<<<<<<=------------:###><<<<111,....KKKK",
"KKKK2222<<<<333345556--------77778<<<<<<<<2222KKKK",
"KKKK1111<<<<333390qq5------------=<<<<<<<<1111KKKK",
"KKKK1111<<<<333390wq5------------=<<<<<<<<1111KKKK",
"KKKK1111<<<<33339e005------------=<<<<<<<<1111KKKK",
"rrrotttty<<<<<<<uiiii------------=<<<<<<<ypppporrr",
"...as##sy<<<<<<<=----------------=<<<<<<<y$++$....",
"...a###sy<<<<<<<=----------------=<<<<<<<y$+++d...",
"...as##sy<<<<<<<=----------------=<<<<<<<y$+++d...",
"...a::::ffffffffg-;;-hhhhhhhh-;;;gffffffff$+++d...",
"...jkkkkllllllllkkkkz........zkkkkllllllll$+++d...",
"...jkkkkkkkkkkkkkkkkz........zkkkkkkkkkkkk$+++d...",
"...jkkkkkkkkkkkkkkkkz........zkkkkkkkkkkkk++++d...",
"...jxxxxkkkkkkkklxxxz........hxxxlkkkkllllOOOOd...",
"........lkkkkkkkc...ve00ebnn m...ckkkM$++$........",
"........lkkkkkkkc...veww0rbbnm...ckkkM$++$........",
"........lkkkkkkkc...veww0rbbnm...ckkkM+++$........",
"........xlllllllc...ve00erbbnm...clllM$$$$........",
"...NBVVBCjjjjjjjd...ZAXXXbbbnm...djjjjddddrSSrm...",
"...Deqqe............mnbbbbbbnm............nnnnm...",
"...D0ww0............mnbbbbbbnm............nbbnm...",
"...Neeee............m nnnnnn m............ nn F...",
"XXX bbbrXXXXXXXXXXXXnDDDDDDDDvGGGGGGGGGGGGDDDDnXXX",
"KKKK....e0000000000eV........Snnnnnnnnnnnn....KKKK",
"KKKK....qqwwwwwwwwwqV........Snbbbbbbbbbbb....KKKK",
"KKKK....0qqqwwwwwwwqH........Snbbbbbbbbbbb....KKKK",
"KKKK....BBBBwqwwwwwqBGJJJZZZZSbbbbbbbbbbbb....KKKK",
"KKKK....rrrrBqwwwwwwq0eeebnnnbbbbbbbbbbbbb....KKKK",
"KKKK....bbbrBqwwwwwwwwww0rbbbbbbbbbbbbbbbb....KKKK",
"KKKK....bbbrBqqqqqwwwwwq0rbbbbbbbbbbbbbbbb....KKKK",
"KKKK....bbbrBwwwwwwwwwww0rbbbbbbbbbbbbbbbb....KKKK",
"KKKKKKKK........NbrrrrrrrbbbbbbbnD........KKKKKKKK",
"KKKKKKKK........vnbbbbbbbbbbbbbbnv........KKKKKKKK",
"KKKKKKKK........vnbbbbbbbbbbbbbbnv........KKKKKKKK",
"KKKKKKKK........D nnnnnnnnnnnnnn D........KKKKKKKK",
"KKKKKKKKKKKKKKKKbFmmmmmmmmmmmmmmFbKKKKKKKKKKKKKKKK",
"KKKKKKKKKKKKKKKKX................XKKKKKKKKKKKKKKKK",
"KKKKKKKKKKKKKKKKX................XKKKKKKKKKKKKKKKK",
"KKKKKKKKKKKKKKKK ................ KKKKKKKKKKKKKKKK"
};
