/* XPM */
static char *_f0b6aec85044334d5063098d5a8dc90LLxRpB9yZA8vT3Qs[] = {
/* columns rows colors chars-per-pixel */
"32 32 18 1 ",
"  c #701028",
". c #F06848",
"X c black",
"o c #C03838",
"O c #384040",
"+ c #66847B",
"@ c #784040",
"# c #E8E8F8",
"$ c #28272C",
"% c #F8D0B8",
"& c #D8A078",
"* c #885028",
"= c #B8B0D0",
"- c #1F2945",
"; c #354775",
": c #4F69AE",
"> c #406888",
", c None",
/* pixels */
",,,,,,,,,,,,,,,,,,,,,,,,,,,,,,,,",
",,,,,,,,,,,,,,,,,,,,,,,,,,,,,,,,",
",,,,,,,,,,,,,,,,,,,,,,,,,,,,,,,,",
",,,,,,,,,,,,,,       ,,,,,,,,,,,",
",,,,,,,,,,,,  ....... X,,,,,,,,,",
",,,,,,,,,,, o.........oX,,,,,,,,",
",,,,,,,,,,, o.........oX,,,,,,,,",
",,,,,,,,,,OOo.........oo ,,,,,,,",
",,,,,,,,OOO+Oo.......oooX,,,,,,,",
",,,,,,,X.oO++Oooooooooo X,,,,,,,",
",,,,,,X...O++OOOOOOoo  oX,,,,,,,",
",,,,,,X...oOO        oo X,,,,,,,",
",,,,,,Xo...  oooooooo XX,,,,,,,,",
",,,,,,,Xooooo  XXXXXXXOX,,,,,,,,",
",,,,,,,,XXX@@X#O$O$OO$OX,,,,,,,,",
",,,,,,,,,,@%%X#&$$X*$OOX,,,,,,,,",
",,,,,,,,,,&%%%%%OX&*X$X,,,,,,,,,",
",,,,,,,,,,,@&%&&X@OXOXX,,,,,,,,,",
",,,,,,,,,,,,XX@@@OXXXX,,,,,,,,,,",
",,,,,,,,,,,,,,,X=O-X;X,,,,,,,,,,",
",,,,,,,,,,,,,,X=::X-X&X,,,,,,,,,",
",,,,,,,,,,,,XX=::XX;X&X,,,,,,,,,",
",,,,,,,,,,,X%-::X-OXXX,,,,,,,,,,",
",,,,,,,,,,,X%%XXOOOXX,,,,,,,,,,,",
",,,,,,,,,,,,XX$;::X>X,,,,,,,,,,,",
",,,,,,,,,,XXXOO$$X>>X,,,,,,,,,,,",
",,,,,,,,,,XOXXOXXXX>>X,,,,,,,,,,",
",,,,,,,,,,,XOOX,,,XX>>X,,,,,,,,,",
",,,,,,,,,,,,XX,,,,XOOOX,,,,,,,,,",
",,,,,,,,,,,,,,,,,,,XXX,,,,,,,,,,",
",,,,,,,,,,,,,,,,,,,,,,,,,,,,,,,,",
",,,,,,,,,,,,,,,,,,,,,,,,,,,,,,,,"
};
