/* XPM */
static char *_8448eee03d745e7f0539d01bcf53612mwDlRsrREx4WCEmO[] = {
/* columns rows colors chars-per-pixel */
"32 32 16 1 ",
"  c #701028",
". c #F06848",
"X c black",
"o c #C03838",
"O c #28272C",
"+ c #424149",
"@ c #354775",
"# c #1F2945",
"$ c #B8B0D0",
"% c #F8D0B8",
"& c #784040",
"* c #4F69AE",
"= c #66847B",
"- c #384040",
"; c #406888",
": c None",
/* pixels */
"::::::::::::::::::::::::::::::::",
"::::::::::::::::::::::::::::::::",
"::::::::::::        ::::::::::::",
"::::::::::  ........  ::::::::::",
":::::::::Xo..........oX:::::::::",
":::::::::Xo..........oX:::::::::",
"::::::::  o..........o  ::::::::",
"::::::::X oo........oo X::::::::",
"::::::::XooooooooooooooX::::::::",
"::::::::X oooooooooooo X::::::::",
"::::::::OX oooooooooo XO::::::::",
":::::::XO++          ++OX:::::::",
":::::::X+O++++++++++++++X:::::::",
"::::::::O+OX+++++++++O+O::::::::",
"::::::::XOX++++++++++X+X::::::::",
"::::::::XXX++O+++O++OXXX::::::::",
":::::::::+XOXXO++X+OXX+:::::::::",
"::::::::::+XXOXO+XOXX@#X::::::::",
"::::::::::X$#XXXOXX#@@@%&:::::::",
":::::::::#$*X@=-=-@*XX%%X:::::::",
":::::::::X$*X@O=-@@X::XX::::::::",
":::::::::X*@XX+O**@OX:::::::::::",
"::::::::&%%XX=X***=XX:::::::::::",
"::::::::&%%--X$==$;OX:::::::::::",
":::::::::XX-X--XXXXX::::::::::::",
"::::::::::XX-;;XX--X::::::::::::",
":::::::::::X-;;X:XX:::::::::::::",
"::::::::::::X;;X::::::::::::::::",
"::::::::::::X--X::::::::::::::::",
":::::::::::::XX:::::::::::::::::",
"::::::::::::::::::::::::::::::::",
"::::::::::::::::::::::::::::::::"
};
