/* XPM */
static char *_81aab3a5e3f4ba1bf6aaa75ba0ed50dQ5chD2LcVlTOhQxg[] = {
/* columns rows colors chars-per-pixel */
"32 32 19 1 ",
"  c #701028",
". c black",
"X c #F06848",
"o c #C03838",
"O c #384040",
"+ c #66847B",
"@ c #28272C",
"# c #E8E8F8",
"$ c #784040",
"% c #885028",
"& c #D8A078",
"* c #F8D0B8",
"= c #B8B0D0",
"- c #4F69AE",
"; c #D09870",
": c #354775",
"> c #1F2945",
", c #406888",
"< c None",
/* pixels */
"<<<<<<<<<<<<<<<<<<<<<<<<<<<<<<<<",
"<<<<<<<<<<<<<<<<<<<<<<<<<<<<<<<<",
"<<<<<<<<<<<<<<<<<<<<<<<<<<<<<<<<",
"<<<<<<<<<<<       <<<<<<<<<<<<<<",
"<<<<<<<<<. XXXXXXX  <<<<<<<<<<<<",
"<<<<<<<<.oXXXXXXXXXo <<<<<<<<<<<",
"<<<<<<<<.oXXXXXXXXXo <<<<<<<<<<<",
"<<<<<<< ooXXXXXXXXXoOO<<<<<<<<<<",
"<<<<<<<.oooXXXXXXXoO+OOO<<<<<<<<",
"<<<<<<<. oooooooooO++OoX.<<<<<<<",
"<<<<<<<.o  ooOOOOOO++OXXX.<<<<<<",
"<<<<<<<. oo        OOoXXX.<<<<<<",
"<<<<<<<<.. oooooooo  XXXo.<<<<<<",
"<<<<<<<<.O.......  ooooo.<<<<<<<",
"<<<<<<<<.O@OO@O@O#.$$...<<<<<<<<",
"<<<<<<<<.OO@%.@@&#.**$<<<<<<<<<<",
"<<<<<<<<<.@.%&.O*****&<<<<<<<<<<",
"<<<<<<<<<..O.O$.&&*&$<<<<<<<<<<<",
"<<<<<<<<<<....O$$$..<<<<<<<<<<<<",
"<<<<<<<<<<<<.=--+..;.<<<<<<<<<<<",
"<<<<<<<<<<<.=---=+.;.<<<<<<<<<<<",
"<<<<<<<<<<.=-:.--=>.<<<<<<<<<<<<",
"<<<<<<<<<>*>:.:--=><<<<<<<<<<<<<",
"<<<<<<<<<.**.:---+<<<<<<<<<<<<<<",
"<<<<<<<<<<..O===+.<<<<<<<<<<<<<<",
"<<<<<<<<<<.OOOOOO,.<<<<<<<<<<<<<",
"<<<<<<<<<..OO...,,,...<<<<<<<<<<",
"<<<<<<<<<.O..<<<.,,OO.<<<<<<<<<<",
"<<<<<<<<<<..<<<<<.OO.<<<<<<<<<<<",
"<<<<<<<<<<<<<<<<<<..<<<<<<<<<<<<",
"<<<<<<<<<<<<<<<<<<<<<<<<<<<<<<<<",
"<<<<<<<<<<<<<<<<<<<<<<<<<<<<<<<<"
};
