/* XPM */
static char *f76c17b7704044b4fd335076ef1de606rcOx1NH0vDYvvYcJ[] = {
/* columns rows colors chars-per-pixel */
"32 32 18 1 ",
"  c #701028",
". c #F06848",
"X c black",
"o c #C03838",
"O c #384040",
"+ c #66847B",
"@ c #28272C",
"# c #424149",
"$ c #784040",
"% c #B8B0D0",
"& c #F8D0B8",
"* c #E8E8F8",
"= c #D8A078",
"- c #1F2945",
"; c #354775",
": c #4F69AE",
"> c #406888",
", c None",
/* pixels */
",,,,,,,,,,,,,,,,,,,,,,,,,,,,,,,,",
",,,,,,,,,,,,,,,,,,,,,,,,,,,,,,,,",
",,,,,,,,,,,,,,,,,,,,,,,,,,,,,,,,",
",,,,,,,,,,,,        ,,,,,,,,,,,,",
",,,,,,,,,,  ........  ,,,,,,,,,,",
",,,,,,,,,Xo..........oX,,,,,,,,,",
",,,,,,,,,Xo..........oX,,,,,,,,,",
",,,,,,,,  o..........o  ,,,,,,,,",
",,,,,,,,X oo........oo X,,,,,,,,",
",,,,,,,,XoOOOOOooOOOOOoX,,,,,,,,",
",,,,,,,,X O++++OO++++O X,,,,,,,,",
",,,,,,,,@X O+++OO+++O X@,,,,,,,,",
",,,,,,,X@Xo OOOooOOO oX@X,,,,,,,",
",,,,,,,X#@Xo........oX@#X,,,,,,,",
",,,,,,,,@##X#......#X##@,,,,,,,,",
",,,,,,,,X#X$%X####X%$X#X,,,,,,,,",
",,,,,,,,XXX&*X====X*&XXX,,,,,,,,",
",,,,,,,,,#X$&&&&&&&&$X#,,,,,,,,,",
",,,,,,,,,,#XX=&==&=XXXXX,,,,,,,,",
",,,,,,,,,,X%-XX$$XX-;;&&X,,,,,,,",
",,,,,,,,,-$$;;O+O+;;XX&&X,,,,,,,",
",,,,,,,,,$&&$;%O+@;X##XX,,,,,,,,",
",,,,,,,,,$&&X@;%@#XX@+X,,,,,,,,,",
",,,,,,,,,,XX@+:%%X+#+@X,,,,,,,,,",
",,,,,,,,,,,,@>%++%XX@#X,,,,,,,,,",
",,,,,,,,,,,,XOOXX>>>XX,,,,,,,,,,",
",,,,,,,,,,,,,XXXXO>>X,,,,,,,,,,,",
",,,,,,,,,,,,,,,,XOOX,,,,,,,,,,,,",
",,,,,,,,,,,,,,,,X>OX,,,,,,,,,,,,",
",,,,,,,,,,,,,,,,,XX,,,,,,,,,,,,,",
",,,,,,,,,,,,,,,,,,,,,,,,,,,,,,,,",
",,,,,,,,,,,,,,,,,,,,,,,,,,,,,,,,"
};
